<svg xmlns="http://www.w3.org/2000/svg" xmlns:xlink="http://www.w3.org/1999/xlink" version="1.1" width="256" height="256" viewBox="0 0 256 256" xml:space="preserve">

<defs>
</defs>
<g style="stroke: none; stroke-width: 0; stroke-dasharray: none; stroke-linecap: butt; stroke-linejoin: miter; stroke-miterlimit: 10; fill: none; fill-rule: nonzero; opacity: 1;" transform="translate(1.4065934065934016 1.4065934065934016) scale(2.81 2.81)" >
	<path fill="#FF0000"  d="M 35.69 90 c -0.112 0 -0.225 -0.019 -0.335 -0.058 c -0.435 -0.154 -0.707 -0.587 -0.66 -1.046 l 3.829 -36.944 l -19.177 3.695 c -0.395 0.073 -0.796 -0.092 -1.02 -0.426 c -0.224 -0.333 -0.226 -0.769 -0.006 -1.104 L 53.474 0.452 c 0.254 -0.387 0.737 -0.548 1.172 -0.395 c 0.435 0.155 0.707 0.586 0.66 1.045 l -3.829 36.944 l 19.176 -3.695 c 0.396 -0.078 0.796 0.091 1.021 0.425 c 0.224 0.333 0.226 0.769 0.006 1.104 L 36.526 89.548 C 36.337 89.836 36.02 90 35.69 90 z" style="stroke: none; stroke-width: 1; stroke-dasharray: none; stroke-linecap: butt; stroke-linejoin: miter; stroke-miterlimit: 10; fill-rule: nonzero; opacity: 1;" transform=" matrix(1 0 0 1 0 0) " stroke-linecap="round" />
	<path fill="#FFFF00" d="M 54.774 83.091 c -1.313 0 -2.52 -0.87 -2.889 -2.197 c -0.443 -1.597 0.491 -3.25 2.087 -3.694 C 68.365 73.198 78.417 59.957 78.417 45 c 0 -10.813 -5.272 -21.008 -14.104 -27.274 c -1.351 -0.959 -1.669 -2.832 -0.71 -4.183 c 0.957 -1.351 2.829 -1.67 4.183 -0.711 C 78.199 20.221 84.417 32.247 84.417 45 c 0 17.642 -11.858 33.26 -28.837 37.98 C 55.312 83.055 55.041 83.091 54.774 83.091 z" style="stroke: none; stroke-width: 1; stroke-dasharray: none; stroke-linecap: butt; stroke-linejoin: miter; stroke-miterlimit: 10; fill-rule: nonzero; opacity: 1;" transform=" matrix(1 0 0 1 0 0) " stroke-linecap="round" />
	<path fill="#FFFF00" d="M 24.925 78.391 c -0.568 0 -1.143 -0.161 -1.653 -0.498 C 12.196 70.562 5.583 58.266 5.583 45 c 0 -17.328 11.101 -32.447 27.624 -37.622 c 1.58 -0.499 3.264 0.385 3.759 1.966 c 0.495 1.581 -0.385 3.264 -1.966 3.759 C 20.994 17.491 11.583 30.309 11.583 45 c 0 11.246 5.607 21.672 15 27.889 c 1.382 0.915 1.76 2.776 0.846 4.158 C 26.852 77.918 25.898 78.391 24.925 78.391 z" style="stroke: none; stroke-width: 1; stroke-dasharray: none; stroke-linecap: butt; stroke-linejoin: miter; stroke-miterlimit: 10; fill-rule: nonzero; opacity: 1;" transform=" matrix(1 0 0 1 0 0) " stroke-linecap="round" />
</g>
</svg>
