<?xml version="1.0" encoding="UTF-8"?>
<svg xmlns="http://www.w3.org/2000/svg" xmlns:xlink="http://www.w3.org/1999/xlink" width="40px" height="40px" viewBox="0 0 40 40" version="1.1">
<g id="surface1">
<path style=" stroke:none;fill-rule:nonzero;fill:rgb(100%,0%,0%);fill-opacity:1;" d="M 15.890625 39.734375 C 15.839844 39.734375 15.792969 39.726562 15.742188 39.710938 C 15.550781 39.640625 15.433594 39.453125 15.453125 39.25 L 17.132812 23.03125 L 8.714844 24.652344 C 8.539062 24.683594 8.363281 24.613281 8.265625 24.464844 C 8.167969 24.320312 8.167969 24.128906 8.265625 23.980469 L 23.699219 0.417969 C 23.808594 0.25 24.023438 0.175781 24.210938 0.246094 C 24.402344 0.3125 24.523438 0.503906 24.503906 0.703125 L 22.820312 16.925781 L 31.242188 15.300781 C 31.414062 15.269531 31.589844 15.34375 31.6875 15.488281 C 31.789062 15.636719 31.789062 15.828125 31.691406 15.972656 L 16.257812 39.535156 C 16.175781 39.664062 16.035156 39.734375 15.890625 39.734375 Z M 15.890625 39.734375 "/>
<path style=" stroke:none;fill-rule:nonzero;fill:rgb(100%,100%,0%);fill-opacity:1;" d="M 24.269531 36.703125 C 23.691406 36.703125 23.164062 36.320312 23 35.738281 C 22.804688 35.035156 23.214844 34.308594 23.917969 34.117188 C 30.234375 32.359375 34.648438 26.542969 34.648438 19.976562 C 34.648438 15.230469 32.335938 10.753906 28.457031 8.003906 C 27.863281 7.582031 27.722656 6.757812 28.144531 6.164062 C 28.566406 5.574219 29.386719 5.433594 29.980469 5.855469 C 34.554688 9.097656 37.285156 14.378906 37.285156 19.976562 C 37.285156 27.722656 32.078125 34.582031 24.621094 36.652344 C 24.503906 36.6875 24.386719 36.703125 24.269531 36.703125 Z M 24.269531 36.703125 "/>
<path style=" stroke:none;fill-rule:nonzero;fill:rgb(100%,100%,0%);fill-opacity:1;" d="M 11.164062 34.636719 C 10.914062 34.636719 10.660156 34.566406 10.4375 34.417969 C 5.574219 31.199219 2.671875 25.800781 2.671875 19.976562 C 2.671875 12.371094 7.546875 5.730469 14.800781 3.460938 C 15.492188 3.238281 16.234375 3.628906 16.449219 4.324219 C 16.667969 5.015625 16.28125 5.753906 15.585938 5.972656 C 9.4375 7.898438 5.304688 13.527344 5.304688 19.976562 C 5.304688 24.914062 7.765625 29.492188 11.890625 32.222656 C 12.5 32.625 12.664062 33.441406 12.261719 34.046875 C 12.007812 34.429688 11.589844 34.636719 11.164062 34.636719 Z M 11.164062 34.636719 "/>
</g>
</svg>
